<svg width="32" height="32" viewBox="0 0 32 32" fill="none" xmlns="http://www.w3.org/2000/svg">
<path d="M16 2C14.617 2 13.469 2.969 13.125 4.25C12.773 4.105 12.402 4 12 4C10.355 4 9 5.355 9 7V17.75L8.125 16.875C7.55913 16.3157 6.7956 16.0021 6 16.0021C5.20439 16.0021 4.44086 16.3157 3.875 16.875C3.31573 17.4409 3.00209 18.2044 3.00209 19C3.00209 19.7956 3.31573 20.5591 3.875 21.125L10.656 27.906C11.832 29.078 13.457 30 15.375 30H20C23.855 30 27 26.855 27 23V11C27 9.355 25.645 8 24 8C23.6584 8.00527 23.3202 8.06885 23 8.188V7C23 5.355 21.645 4 20 4C19.598 4 19.227 4.105 18.875 4.25C18.531 2.969 17.383 2 16 2ZM16 4C16.566 4 17 4.434 17 5V15H19V7C19 6.434 19.434 6 20 6C20.566 6 21 6.434 21 7V15H23V11C23 10.434 23.434 10 24 10C24.566 10 25 10.434 25 11V23C25 25.773 22.773 28 20 28H15.375C14.102 28 13.008 27.379 12.094 26.469L5.281 19.719C5.18624 19.6248 5.11104 19.5127 5.05973 19.3893C5.00842 19.266 4.982 19.1336 4.982 19C4.982 18.8664 5.00842 18.734 5.05973 18.6107C5.11104 18.4873 5.18624 18.3752 5.281 18.281C5.37523 18.1862 5.48726 18.111 5.61065 18.0597C5.73404 18.0084 5.86636 17.982 6 17.982C6.13363 17.982 6.26595 18.0084 6.38934 18.0597C6.51273 18.111 6.62477 18.1862 6.719 18.281L9.281 20.875L11 22.594V7C11 6.434 11.434 6 12 6C12.566 6 13 6.434 13 7V15H15V5C15 4.434 15.434 4 16 4Z" fill="black"/>
</svg>
