<svg width="32" height="32" viewBox="0 0 32 32" fill="none" xmlns="http://www.w3.org/2000/svg">
<path d="M15.502 1.017C14.882 0.966002 14.318 1.021 13.732 1.299C13.4619 1.41507 13.211 1.57152 12.988 1.763L12.697 1.983L12.684 2.045L11.706 3.078L6.03 8.991L6.028 8.993C5.89647 9.13042 5.78106 9.28241 5.684 9.446L5.537 9.6L3.857 13.366L3.614 13.911L1.974 16.944C1.95629 16.9751 1.94027 17.0072 1.926 17.04C1.726 17.418 1.598 17.814 1.526 18.22L1.523 18.239L0.978996 22.199L1.501 23.767C1.90965 25.0014 2.6026 26.1235 3.524 27.041L4.454 27.971C5.08768 28.6097 5.82216 29.1398 6.628 29.54L7.99 30.216L7.993 30.218C9.1586 30.8046 10.4461 31.1082 11.751 31.104H11.753L15 31.096V31.104H23.726C24.616 31.089 25.644 30.636 26.248 29.947C26.4608 29.7531 26.6541 29.5387 26.825 29.307L26.902 29.203L30.22 25.425C30.5391 25.0619 30.7719 24.6313 30.9007 24.1654C31.0296 23.6995 31.0512 23.2105 30.964 22.735L30.847 22.108C30.8346 21.9198 30.8088 21.7326 30.77 21.548V21.543L30.353 19.428L30.359 19.42L29.431 14.752C29.2296 13.7054 28.651 12.7682 27.805 12.12L24.175 8.893L21.865 4.62L21.847 4.592C21.426 3.92 21.047 3.368 20.533 2.937C20.007 2.495 19.408 2.234 18.653 1.987L17.406 1.547L16.896 1.368L16.889 1.366L16.799 1.331C16.6989 1.29364 16.5979 1.25897 16.496 1.227C16.1794 1.12549 15.8534 1.05581 15.523 1.019L15.513 1.018L15.502 1.017ZM23.7 29.104H17V25.927L26.195 24.476L28.895 22.547L28.996 23.093V23.095C29.062 23.461 28.962 23.828 28.72 24.102L25.344 27.946L25.216 28.119L25.214 28.121C25.1133 28.2583 25 28.3823 24.874 28.493L24.827 28.535L24.749 28.624L24.746 28.626C24.532 28.873 24.048 29.096 23.7 29.104ZM11.51 20.614L16 25.104L5 22.104L5.79 18.974C5.92 18.414 6.27 17.944 6.76 17.644L11 15.104V19.384C11 19.844 11.18 20.284 11.51 20.614ZM11 15.104L8.395 9.414L13.152 4.461L13.22 4.389L11 15.104ZM18.18 20.544C17.52 20.244 17.18 19.494 17.39 18.794L19.56 11.566L27.372 14.782C27.412 14.896 27.444 15.0137 27.468 15.135V15.137L28.221 18.927L28.217 18.933L28.712 21.448L25.805 23.524L25.013 23.65L18.18 20.544ZM19.85 10.604L20 10.104L20.692 6.656L22.584 10.154L25.884 13.088L19.85 10.604ZM3.387 23.104H4.867L15 25.867V29.096L11.75 29.104H11.748C10.756 29.1077 9.77706 28.8771 8.891 28.431L7.515 27.748L7.512 27.747C6.902 27.4434 6.34622 27.0414 5.867 26.557L4.937 25.627C4.23791 24.9291 3.71158 24.0774 3.4 23.14L3.387 23.104ZM16.18 3.237L16.745 3.435C17.072 3.549 17.518 3.707 17.997 3.876L18.009 3.88L18.021 3.884C18.699 4.106 19.012 4.27 19.248 4.468C19.453 4.64 19.648 4.878 19.941 5.323L19.03 9.86L16.433 18.505C16.2613 19.0746 16.3018 19.6872 16.5471 20.2292C16.7924 20.7712 17.2258 21.206 17.767 21.453L21.997 23.375L16.364 24.052L12.218 19.906C12.1488 19.8377 12.094 19.7562 12.0567 19.6664C12.0195 19.5766 12.0005 19.4802 12.001 19.383V15.205L14.498 3.153C14.597 3.098 14.678 3.065 14.751 3.043C14.881 3.005 15.047 2.986 15.328 3.008C15.525 3.03 15.731 3.082 15.9 3.134C15.9819 3.16005 16.0629 3.18873 16.143 3.22L16.152 3.224L16.18 3.237ZM3.74 17.89L3.757 17.859V17.857L5.407 14.806L7.174 10.84C7.20465 10.7643 7.24831 10.6946 7.303 10.634L7.67 10.233L9.718 14.706L6.246 16.786L6.238 16.791C5.88414 17.0051 5.57638 17.2873 5.3326 17.6214C5.08883 17.9555 4.9139 18.3347 4.818 18.737L4.221 21.104H3.147L3.497 18.55C3.53622 18.3314 3.61159 18.1208 3.72 17.927L3.725 17.918L3.74 17.89Z" fill="black"/>
</svg>
