<svg width="32" height="32" viewBox="0 0 32 32" fill="none" xmlns="http://www.w3.org/2000/svg">
<path fill-rule="evenodd" clip-rule="evenodd" d="M10.8373 12.2067C10.0423 13.1575 8.92263 13.7792 7.69528 13.9514C6.46794 14.1236 5.22038 13.8339 4.19446 13.1385C3.16854 12.4432 2.43735 11.3917 2.14263 10.1879C1.84791 8.98404 2.01066 7.71368 2.59932 6.62304C3.18799 5.5324 4.16064 4.69918 5.32871 4.28489C6.49678 3.87061 7.77707 3.90479 8.92138 4.3808C10.0657 4.85681 10.9925 5.74074 11.5221 6.86123C12.0518 7.98172 12.1465 9.25896 11.788 10.4453L13.3027 11.32C13.4257 11.391 13.5322 11.4874 13.6151 11.6027C13.698 11.7181 13.7554 11.8498 13.7834 11.9891C13.8114 12.1284 13.8094 12.272 13.7776 12.4105C13.7457 12.5489 13.6847 12.679 13.5987 12.792L13.5907 12.8013C13.4334 13.0081 13.2019 13.1456 12.9451 13.1847C12.6882 13.2237 12.4263 13.1613 12.2147 13.0107C12.1666 12.9753 12.1163 12.9433 12.064 12.9147L10.8373 12.2067ZM4.40133 7.5C4.78648 6.83094 5.41473 6.33612 6.15541 6.11844C6.89608 5.90077 7.69216 5.977 8.37806 6.33128C9.06396 6.68557 9.58689 7.29063 9.83806 8.02063C10.0892 8.75062 10.0493 9.54934 9.72666 10.2507C9.65606 10.3433 9.60111 10.4469 9.56399 10.5573C9.15857 11.2419 8.49778 11.7375 7.72701 11.9349C6.95623 12.1323 6.13861 12.0154 5.45399 11.61C4.76938 11.2046 4.27387 10.5438 4.07645 9.77301C3.87904 9.00224 3.9959 8.18461 4.40133 7.5ZM17.7973 11.0293C16.6922 11.3661 15.6919 11.9804 14.8917 12.8137C14.0915 13.647 13.5183 14.6715 13.2267 15.7893C13.0885 16.3126 13.0147 16.8508 13.0067 17.392C13.0004 17.7174 12.9104 18.0358 12.7453 18.3163C12.5802 18.5968 12.3455 18.83 12.064 18.9933L10.784 19.732C9.97382 18.7941 8.84425 18.1904 7.61427 18.038C6.38429 17.8855 5.14153 18.1952 4.12691 18.907C3.11229 19.6188 2.3981 20.6819 2.12279 21.8904C1.84749 23.0988 2.03068 24.3664 2.63685 25.4474C3.24302 26.5285 4.22899 27.3459 5.40362 27.7413C6.57824 28.1367 7.85784 28.0819 8.99433 27.5875C10.1308 27.093 11.0433 26.1942 11.5547 25.0653C12.0662 23.9364 12.1403 22.6578 11.7627 21.4773L30.068 10.9093C30.2393 10.8104 30.3774 10.663 30.4649 10.4856C30.5524 10.3082 30.5853 10.1088 30.5594 9.9127C30.5336 9.7166 30.4502 9.53256 30.3198 9.38386C30.1893 9.23517 30.0177 9.1285 29.8267 9.07733L28.756 8.79067C27.4889 8.45089 26.1519 8.47399 24.8973 8.85733L17.7973 11.0293ZM5.49999 20.4027C5.15606 20.5982 4.8542 20.8599 4.61179 21.1725C4.36939 21.4852 4.19123 21.8428 4.08756 22.2246C3.9839 22.6064 3.95679 23.005 4.00779 23.3973C4.05878 23.7896 4.18688 24.168 4.3847 24.5107C4.58253 24.8533 4.84617 25.1534 5.16046 25.3937C5.47474 25.6341 5.83346 25.8098 6.21596 25.911C6.59845 26.0121 6.99718 26.0366 7.38917 25.983C7.78116 25.9294 8.15868 25.7988 8.49999 25.5987C9.18341 25.198 9.68062 24.5433 9.88311 23.7774C10.0856 23.0115 9.97693 22.1966 9.58082 21.5106C9.18471 20.8245 8.53331 20.323 7.76879 20.1154C7.00426 19.9079 6.18867 20.0111 5.49999 20.4027ZM16 17C16.2652 17 16.5196 16.8946 16.7071 16.7071C16.8946 16.5196 17 16.2652 17 16C17 15.7348 16.8946 15.4804 16.7071 15.2929C16.5196 15.1054 16.2652 15 16 15C15.7348 15 15.4804 15.1054 15.2929 15.2929C15.1054 15.4804 15 15.7348 15 16C15 16.2652 15.1054 16.5196 15.2929 16.7071C15.4804 16.8946 15.7348 17 16 17Z" fill="black"/>
<path d="M21.8293 16.82C21.9813 16.7322 22.1538 16.686 22.3293 16.686C22.5049 16.686 22.6773 16.7322 22.8293 16.82L30.0693 21C30.2406 21.099 30.3787 21.2466 30.4661 21.4241C30.5535 21.6016 30.5862 21.801 30.5603 21.9971C30.5343 22.1932 30.4507 22.3772 30.3201 22.5258C30.1895 22.6745 30.0178 22.781 29.8267 22.832L28.7573 23.1187C27.4901 23.458 26.1531 23.4344 24.8987 23.0507L18.036 20.952C17.8496 20.8951 17.6839 20.785 17.5592 20.6353C17.4345 20.4855 17.3563 20.3025 17.3342 20.1089C17.3121 19.9152 17.3471 19.7194 17.4348 19.5454C17.5225 19.3713 17.6592 19.2267 17.828 19.1293L21.8293 16.82Z" fill="black"/>
</svg>
